<?xml version="1.0" encoding="UTF-8" standalone="no"?>
<svg
   width="1920"
   height="1080"
   viewBox="0 0 1920 1080"
   fill="none"
   version="1.1"
   id="svg21139"
   sodipodi:docname="home-background.svg"
   inkscape:version="1.2.2 (732a01da63, 2022-12-09)"
   xmlns:inkscape="http://www.inkscape.org/namespaces/inkscape"
   xmlns:sodipodi="http://sodipodi.sourceforge.net/DTD/sodipodi-0.dtd"
   xmlns="http://www.w3.org/2000/svg"
   xmlns:svg="http://www.w3.org/2000/svg">
  <defs
     id="defs21143" />
  <sodipodi:namedview
     id="namedview21141"
     pagecolor="#ffffff"
     bordercolor="#000000"
     borderopacity="0.25"
     inkscape:showpageshadow="2"
     inkscape:pageopacity="0.0"
     inkscape:pagecheckerboard="0"
     inkscape:deskcolor="#d1d1d1"
     showgrid="false"
     inkscape:zoom="0.44562459"
     inkscape:cx="1211.7823"
     inkscape:cy="341.09428"
     inkscape:window-width="1920"
     inkscape:window-height="1017"
     inkscape:window-x="1912"
     inkscape:window-y="-8"
     inkscape:window-maximized="1"
     inkscape:current-layer="svg21139"
     showguides="false"
     inkscape:lockguides="true" />
  <path
     d="M423.97 845.214C423.764 846.274 422.174 845.966 422.38 844.906C422.585 843.845 424.175 844.153 423.97 845.214Z"
     fill="black"
     id="path21091" />
  <path
     d="M420.087 847.159C419.882 848.218 418.292 847.91 418.497 846.851C418.703 845.791 420.293 846.099 420.087 847.159Z"
     fill="black"
     id="path21093" />
  <path
     d="M418.029 850.97C417.824 852.029 416.234 851.721 416.439 850.662C416.645 849.601 418.235 849.909 418.029 850.97Z"
     fill="black"
     id="path21095" />
  <path
     d="M420.343 854.628C420.138 855.689 418.546 855.38 418.751 854.319C418.957 853.259 420.549 853.567 420.343 854.628Z"
     fill="black"
     id="path21097" />
  <path
     d="M494.417 857.839C494.211 858.9 492.621 858.592 492.827 857.531C493.032 856.472 494.622 856.78 494.417 857.839Z"
     fill="black"
     id="path21107" />
  <path
     d="M488.487 857.709C488.281 858.77 486.689 858.462 486.895 857.401C487.1 856.34 488.692 856.648 488.487 857.709Z"
     fill="black"
     id="path21109" />
  <path
     d="M491.358 860.963C491.153 862.022 489.563 861.714 489.768 860.655C489.974 859.594 491.564 859.902 491.358 860.963Z"
     fill="black"
     id="path21111" />
  <path
     d="M491.849 865.268C491.644 866.327 490.054 866.019 490.259 864.96C490.464 863.899 492.055 864.207 491.849 865.268Z"
     fill="black"
     id="path21113" />
  <path
     d="M488.332 867.796C488.126 868.857 486.536 868.549 486.741 867.488C486.947 866.427 488.537 866.735 488.332 867.796Z"
     fill="black"
     id="path21115" />
  <path
     d="M484.34 866.253C484.135 867.313 482.545 867.005 482.75 865.945C482.955 864.886 484.545 865.194 484.34 866.253Z"
     fill="black"
     id="path21117" />
  <path
     d="M487.324 863.635C487.119 864.696 485.528 864.388 485.734 863.327C485.939 862.268 487.529 862.576 487.324 863.635Z"
     fill="black"
     id="path21119" />
  <path
     d="M484.516 860.676C484.311 861.737 482.72 861.429 482.926 860.368C483.131 859.309 484.721 859.617 484.516 860.676Z"
     fill="black"
     id="path21121" />
  <g
     inkscape:groupmode="layer"
     id="layer1"
     inkscape:label="Layer 1" />
  <rect
     width="1920"
     height="1080"
     fill="#1f1f1f"
     id="rect2"
     x="0.44970745"
     y="3.0580034" />
</svg>
